<?xml version="1.0" standalone="no"?>
<!DOCTYPE svg PUBLIC "-//W3C//DTD SVG 20010904//EN"
 "http://www.w3.org/TR/2001/REC-SVG-20010904/DTD/svg10.dtd">
<svg version="1.0" xmlns="http://www.w3.org/2000/svg"
 width="489.000000pt" height="180.000000pt" viewBox="0 0 489.000000 180.000000"
 preserveAspectRatio="xMidYMid meet">

<g transform="translate(0.000000,180.000000) scale(0.100000,-0.100000)"
fill="#000000" stroke="none">
<path d="M660 1733 c-62 -11 -129 -36 -182 -68 -31 -19 -60 -35 -66 -35 -5 0
-15 12 -21 28 -6 15 -20 38 -30 51 l-18 23 -36 -63 c-30 -54 -44 -69 -93 -95
-32 -18 -60 -36 -61 -40 -2 -5 24 -24 57 -42 33 -18 60 -40 60 -48 0 -8 -8
-31 -17 -52 -14 -31 -18 -78 -21 -289 -4 -283 -3 -289 69 -363 23 -24 39 -50
39 -64 0 -37 36 -141 76 -217 20 -38 70 -105 111 -150 l74 -81 -2 -69 c-2 -69
8 -98 30 -85 6 4 11 32 11 62 0 30 4 54 9 54 5 0 38 -14 73 -30 94 -45 116
-46 198 -15 38 15 72 31 76 36 3 5 11 9 19 9 10 0 15 -16 17 -57 3 -50 6 -58
23 -58 18 0 20 8 25 85 5 84 6 86 45 122 22 21 43 38 46 38 3 0 16 -21 29 -46
13 -25 27 -47 32 -50 4 -3 20 21 37 53 33 65 46 79 114 114 26 13 47 26 47 29
0 3 -27 20 -61 39 -33 18 -63 40 -66 47 -3 8 5 56 18 107 19 76 30 99 61 132
64 69 68 88 68 334 l0 219 -30 11 -30 10 -1 -47 c-1 -47 -1 -47 -10 -14 -22
76 -104 188 -175 239 -42 31 -126 73 -146 73 -8 0 -18 4 -23 9 -15 14 -158 30
-172 19 -23 -18 -58 -5 -61 24 -4 36 38 58 114 58 65 0 184 -20 184 -31 0 -4
14 -10 30 -14 17 -4 30 -11 30 -16 0 -5 6 -9 13 -9 22 -1 90 -67 82 -81 -6 -8
-4 -10 4 -4 15 8 45 -21 55 -53 4 -12 12 -22 17 -22 5 0 9 -7 9 -15 0 -24 29
-17 41 9 10 20 7 31 -19 69 -43 61 -125 133 -192 167 -97 49 -161 60 -331 59
-85 -1 -165 -4 -179 -6z m20 -97 c0 -33 -4 -45 -17 -50 -84 -29 -99 -32 -128
-22 -48 16 -58 31 -32 49 12 8 33 18 47 22 14 4 27 11 30 15 3 3 25 11 50 17
25 6 46 11 48 12 1 0 2 -19 2 -43z m-305 -45 c3 -10 18 -24 33 -32 41 -21 44
-32 11 -47 -16 -8 -38 -30 -50 -48 -11 -19 -22 -34 -25 -34 -2 0 -10 13 -19
29 -8 17 -28 38 -45 48 -37 21 -37 28 -2 48 15 9 35 30 45 47 14 25 20 28 32
18 8 -6 17 -20 20 -29z m581 -115 c33 -7 85 -24 115 -39 76 -36 169 -138 169
-186 0 -4 -26 18 -57 49 -64 61 -164 114 -246 131 -29 6 -62 16 -74 21 -36 18
-50 4 -57 -58 -12 -106 -65 -149 -224 -179 -51 -10 -95 -21 -98 -26 -9 -15
-34 -10 -34 7 0 39 79 165 133 211 86 73 230 100 373 69z m34 -157 c105 -36
224 -136 281 -234 28 -49 29 -52 29 -206 0 -190 -24 -333 -46 -276 -11 31 -31
18 -63 -43 -27 -51 -41 -65 -96 -96 -36 -19 -65 -40 -65 -45 0 -5 18 -18 39
-29 22 -11 43 -25 47 -32 11 -17 -76 -90 -156 -132 -98 -51 -124 -53 -211 -17
-251 106 -379 336 -379 685 l0 102 48 46 c61 59 95 76 184 88 40 6 93 21 118
33 38 20 45 28 42 50 -3 26 0 29 38 31 8 1 26 25 40 53 24 52 26 53 60 47 19
-4 60 -15 90 -25z m-670 -445 c0 -92 -18 -97 -39 -11 -15 65 -10 87 19 87 18
0 20 -6 20 -76z m1080 32 c0 -48 -17 -106 -31 -106 -5 0 -9 34 -9 75 0 68 2
75 20 75 17 0 20 -7 20 -44z m-145 -416 c8 -16 29 -37 45 -45 17 -9 30 -20 30
-25 0 -5 -13 -16 -30 -25 -16 -8 -37 -30 -46 -47 l-16 -31 -19 24 c-10 13 -19
27 -19 31 0 3 -17 16 -37 28 l-37 22 36 20 c21 12 42 34 49 50 15 36 25 35 44
-2z"/>
<path d="M509 1045 c-25 -8 -53 -23 -63 -33 -15 -17 -15 -20 -1 -32 13 -11 22
-10 53 5 27 13 68 19 155 23 113 4 118 5 115 26 -3 20 -9 21 -108 23 -68 1
-121 -3 -151 -12z"/>
<path d="M917 1053 c-4 -3 -7 -14 -7 -23 0 -15 15 -18 113 -22 75 -3 126 -11
155 -23 39 -16 45 -16 59 -3 13 14 12 18 -14 36 -15 11 -46 25 -68 31 -43 12
-227 15 -238 4z"/>
<path d="M503 863 c-23 -8 -14 -40 17 -67 58 -48 137 -46 196 6 37 33 43 52
17 62 -10 4 -26 -3 -42 -19 -47 -45 -101 -43 -156 5 -11 10 -26 15 -32 13z"/>
<path d="M948 863 c-60 -15 33 -103 109 -103 36 0 105 34 122 61 12 20 11 24
-5 36 -15 11 -21 10 -44 -12 -46 -44 -107 -43 -150 5 -8 9 -23 15 -32 13z"/>
<path d="M689 514 c-11 -14 -9 -19 11 -34 69 -52 224 -50 280 2 20 19 21 22 6
37 -14 14 -19 14 -39 2 -35 -22 -155 -26 -201 -7 -46 19 -41 19 -57 0z"/>
<path d="M2961 1727 c-8 -11 -11 -97 -9 -317 4 -373 -1 -364 121 -242 45 45
89 82 97 82 9 0 51 -36 95 -80 44 -44 85 -80 91 -80 6 0 17 7 24 15 10 13 -1
29 -74 103 -47 49 -86 92 -86 96 0 5 39 48 86 97 74 75 85 91 74 104 -7 8 -17
15 -23 15 -6 0 -82 -71 -169 -157 -104 -103 -161 -154 -168 -147 -6 6 -11 114
-12 264 -3 224 -5 255 -19 258 -9 1 -21 -4 -28 -11z"/>
<path d="M2085 1508 c-50 -18 -89 -53 -119 -108 -24 -44 -28 -60 -24 -110 11
-155 175 -247 313 -176 28 14 51 22 53 17 8 -25 31 -44 46 -38 14 5 16 24 16
124 0 148 -10 184 -65 237 -62 60 -144 80 -220 54z m145 -67 c52 -27 80 -74
80 -135 0 -94 -62 -156 -156 -156 -88 0 -154 67 -154 155 0 116 127 191 230
136z"/>
<path d="M2596 1500 c-84 -42 -126 -107 -126 -194 0 -67 9 -93 52 -141 67 -77
171 -97 259 -49 50 28 69 58 50 77 -9 9 -17 8 -34 -3 -57 -36 -80 -42 -134
-38 -46 4 -60 10 -88 39 -20 20 -39 53 -46 80 -11 42 -10 50 12 95 46 93 144
123 223 69 39 -27 61 -31 71 -15 13 22 -8 50 -57 74 -63 31 -127 33 -182 6z"/>
<path d="M1367 1403 c-3 -5 -3 -21 0 -36 4 -21 10 -27 26 -25 25 4 46 34 32
47 -15 14 -53 23 -58 14z"/>
<path d="M50 1371 c0 -13 -8 -21 -22 -23 -15 -2 -24 -11 -26 -27 -2 -13 0 -21
6 -17 16 10 42 -5 42 -24 0 -10 7 -21 16 -24 22 -9 22 -8 26 17 2 14 11 23 26
25 31 5 32 52 1 52 -12 0 -23 8 -26 20 -7 26 -43 27 -43 1z"/>
<path d="M1947 943 c-4 -3 -7 -147 -7 -319 0 -279 2 -313 16 -318 19 -7 44 10
44 30 0 18 2 18 50 -7 90 -47 186 -33 257 37 101 102 76 266 -52 336 -65 36
-124 37 -191 3 -27 -14 -52 -25 -56 -25 -5 0 -8 55 -8 123 0 82 -4 127 -12
135 -13 13 -31 16 -41 5z m296 -298 c47 -33 67 -72 67 -132 0 -161 -215 -215
-292 -73 -25 46 -20 125 10 167 46 65 148 83 215 38z"/>
<path d="M4051 896 c-9 -11 -11 -82 -9 -263 3 -224 5 -251 22 -276 35 -51 104
-71 159 -46 30 13 48 42 37 59 -7 11 -15 11 -47 1 -96 -32 -114 -4 -111 169
l3 125 40 3 c72 4 87 11 83 35 -3 19 -11 23 -63 27 l-60 5 -3 75 c-4 90 -22
121 -51 86z"/>
<path d="M2585 710 c-148 -67 -169 -268 -38 -367 76 -56 194 -54 256 4 52 51
22 81 -40 39 -53 -36 -132 -37 -180 0 -28 21 -63 70 -63 89 0 3 75 5 166 5
196 0 209 4 200 62 -23 142 -174 226 -301 168z m165 -59 c39 -20 75 -73 66
-96 -4 -12 -31 -15 -145 -15 -156 0 -166 5 -128 62 43 64 137 87 207 49z"/>
<path d="M3110 714 c-42 -18 -96 -68 -118 -109 -9 -18 -15 -54 -15 -90 0 -68
15 -105 65 -152 69 -67 159 -81 244 -38 27 14 50 25 52 25 1 0 7 -12 12 -26 7
-16 16 -24 28 -22 15 3 17 18 20 123 4 152 0 172 -45 225 -63 74 -161 100
-243 64z m181 -80 c33 -32 59 -83 59 -119 0 -40 -28 -92 -67 -124 -32 -26 -46
-31 -91 -31 -139 0 -211 152 -120 256 41 47 61 54 131 51 47 -3 62 -8 88 -33z"/>
<path d="M3504 705 c-3 -14 -5 -78 -3 -143 4 -110 6 -122 32 -160 15 -23 46
-54 69 -69 55 -37 151 -39 216 -5 50 26 52 26 52 8 0 -20 25 -37 44 -30 14 5
16 30 16 204 0 163 -3 200 -15 210 -12 10 -18 10 -30 0 -12 -10 -15 -38 -15
-129 0 -90 -4 -124 -18 -151 -52 -104 -210 -109 -272 -8 -17 28 -20 51 -20
154 0 119 -6 144 -37 144 -7 0 -15 -11 -19 -25z"/>
<path d="M4362 713 c-7 -13 -1 -37 25 -93 98 -209 143 -313 143 -331 0 -54
-66 -134 -119 -145 -50 -10 -71 -24 -71 -44 0 -45 125 -15 176 42 28 31 56 86
169 333 53 116 94 219 93 230 -2 12 -11 20 -23 20 -15 0 -30 -24 -67 -105 -92
-204 -111 -241 -121 -237 -5 1 -44 79 -87 172 -76 168 -98 197 -118 158z"/>
<path d="M1481 636 c-5 -13 -19 -26 -30 -29 -28 -7 -27 -25 3 -36 13 -5 26
-19 29 -30 7 -28 35 -27 46 3 5 13 19 26 30 29 28 7 27 25 -3 36 -13 5 -26 19
-29 30 -7 28 -35 27 -46 -3z"/>
</g>
</svg>
