<?xml version="1.0" standalone="no"?>
<!DOCTYPE svg PUBLIC "-//W3C//DTD SVG 20010904//EN"
 "http://www.w3.org/TR/2001/REC-SVG-20010904/DTD/svg10.dtd">
<svg version="1.0" xmlns="http://www.w3.org/2000/svg"
 width="173.000000pt" height="180.000000pt" viewBox="0 0 173.000000 180.000000"
 preserveAspectRatio="xMidYMid meet">

<g transform="translate(0.000000,180.000000) scale(0.100000,-0.100000)"
fill="#f891d8" stroke="none">
<path d="M613 1731 c-41 -10 -99 -34 -132 -55 -32 -20 -63 -36 -68 -36 -6 0
-18 18 -28 40 -31 68 -39 68 -78 -2 -30 -53 -44 -68 -93 -94 -32 -18 -60 -36
-61 -40 -2 -5 24 -24 57 -42 33 -18 60 -37 60 -42 0 -5 -8 -31 -17 -57 -15
-41 -18 -85 -18 -308 l0 -260 33 -47 c18 -26 39 -51 48 -56 8 -5 21 -38 29
-74 27 -128 100 -261 195 -355 l53 -52 2 -74 c3 -80 8 -97 31 -97 11 0 14 14
14 60 0 33 4 60 9 60 5 0 38 -14 73 -30 94 -45 116 -46 198 -15 38 15 72 31
76 36 3 5 11 9 19 9 10 0 15 -16 17 -57 3 -50 6 -58 23 -58 18 0 20 8 23 80 3
79 3 81 45 123 22 23 45 42 49 42 4 0 17 -20 29 -45 12 -25 25 -48 30 -50 4
-3 23 23 41 57 28 54 41 68 95 98 34 19 63 38 63 42 0 4 -27 21 -60 38 -34 17
-64 38 -67 46 -3 8 4 48 16 87 11 40 21 81 21 92 0 11 18 37 39 58 67 64 72
91 69 337 l-3 214 -25 13 c-25 12 -25 12 -31 -35 -3 -26 -7 -38 -7 -27 -5 58
-104 199 -178 252 -42 31 -126 73 -146 73 -8 0 -18 4 -23 9 -15 14 -158 30
-172 19 -23 -18 -58 -5 -61 24 -4 36 38 58 114 58 65 0 184 -20 184 -31 0 -4
14 -10 30 -14 17 -4 30 -11 30 -16 0 -5 6 -9 13 -9 22 -1 90 -67 82 -81 -6 -8
-4 -10 4 -4 15 8 45 -21 55 -53 4 -12 12 -22 17 -22 5 0 9 -7 9 -15 0 -24 29
-17 42 9 9 22 6 31 -26 75 -75 102 -182 175 -303 206 -84 22 -345 19 -440 -4z
m67 -85 c0 -33 -4 -45 -17 -50 -84 -29 -99 -32 -128 -22 -48 16 -58 31 -32 49
12 8 33 18 47 22 14 4 27 11 30 15 3 3 25 11 50 17 25 6 46 11 48 12 1 0 2
-19 2 -43z m-305 -45 c3 -10 18 -24 33 -32 41 -21 44 -32 11 -47 -16 -8 -38
-30 -50 -48 -11 -19 -22 -34 -25 -34 -2 0 -10 13 -19 29 -8 17 -28 38 -45 48
-37 21 -37 28 -2 48 15 9 35 30 45 47 14 25 20 28 32 18 8 -6 17 -20 20 -29z
m581 -115 c33 -7 85 -24 115 -39 76 -36 169 -138 169 -186 0 -4 -26 18 -57 49
-64 61 -164 114 -246 131 -29 6 -62 16 -74 21 -36 18 -50 4 -57 -58 -12 -106
-65 -149 -224 -179 -51 -10 -95 -21 -98 -26 -9 -15 -34 -10 -34 7 0 39 79 165
133 211 86 73 230 100 373 69z m34 -157 c105 -36 224 -136 281 -234 28 -49 29
-52 29 -206 0 -190 -24 -333 -46 -276 -11 31 -31 18 -63 -43 -27 -51 -41 -65
-96 -96 -36 -19 -65 -40 -65 -45 0 -5 18 -18 39 -29 22 -11 43 -25 47 -32 11
-17 -76 -90 -156 -132 -98 -51 -124 -53 -211 -17 -251 106 -379 336 -379 685
l0 102 48 46 c61 59 95 76 184 88 40 6 93 21 118 33 38 20 45 28 42 50 -3 26
0 29 38 31 8 1 26 25 40 53 24 52 26 53 60 47 19 -4 60 -15 90 -25z m-670
-445 c0 -92 -18 -97 -39 -11 -15 65 -10 87 19 87 18 0 20 -6 20 -76z m1080 32
c0 -48 -17 -106 -31 -106 -5 0 -9 34 -9 75 0 68 2 75 20 75 17 0 20 -7 20 -44z
m-145 -416 c8 -16 29 -37 45 -45 17 -9 30 -20 30 -25 0 -5 -13 -16 -30 -25
-16 -8 -37 -30 -46 -47 l-16 -31 -19 24 c-10 13 -19 27 -19 31 0 3 -17 16 -37
28 l-37 22 36 20 c21 12 42 34 49 50 15 36 25 35 44 -2z"/>
<path d="M509 1055 c-25 -8 -53 -23 -63 -33 -15 -17 -15 -20 -1 -32 13 -11 22
-10 53 5 27 13 68 19 155 23 113 4 118 5 115 26 -3 20 -9 21 -108 23 -68 1
-121 -3 -151 -12z"/>
<path d="M917 1063 c-4 -3 -7 -14 -7 -23 0 -15 15 -18 113 -22 75 -3 126 -11
155 -23 39 -16 45 -16 59 -3 13 14 12 18 -14 36 -15 11 -46 25 -68 31 -43 12
-227 15 -238 4z"/>
<path d="M503 873 c-23 -8 -14 -40 17 -67 58 -48 137 -46 196 6 37 33 43 52
17 62 -10 4 -26 -3 -42 -19 -47 -45 -101 -43 -156 5 -11 10 -26 15 -32 13z"/>
<path d="M948 873 c-60 -15 33 -103 109 -103 36 0 105 34 122 61 12 20 11 24
-5 36 -15 11 -21 10 -44 -12 -46 -44 -107 -43 -150 5 -8 9 -23 15 -32 13z"/>
<path d="M689 524 c-11 -14 -9 -19 11 -34 69 -52 224 -50 280 2 20 19 21 22 6
37 -14 14 -19 14 -39 2 -35 -22 -155 -26 -201 -7 -46 19 -41 19 -57 0z"/>
<path d="M1367 1413 c-3 -4 -3 -20 0 -36 6 -30 33 -37 52 -13 12 14 5 46 -9
46 -5 0 -15 3 -23 6 -8 3 -17 2 -20 -3z"/>
<path d="M50 1380 c0 -13 -9 -22 -25 -26 -34 -8 -35 -44 -1 -44 18 0 25 -6 28
-22 4 -31 36 -36 40 -6 2 15 11 24 26 26 29 4 32 52 3 52 -11 0 -23 9 -26 20
-8 27 -45 27 -45 0z"/>
<path d="M1481 646 c-5 -13 -19 -26 -30 -29 -28 -7 -27 -25 3 -36 13 -5 26
-19 29 -30 7 -28 35 -27 46 3 5 13 19 26 30 29 28 7 27 25 -3 36 -13 5 -26 19
-29 30 -7 28 -35 27 -46 -3z"/>
</g>
</svg>
